<?xml version="1.0" encoding="UTF-8" standalone="no"?>
<!-- Created with Inkscape (http://www.inkscape.org/) -->

<svg
   width="450mm"
   height="566.09998mm"
   viewBox="0 0 450 566.09998"
   version="1.1"
   id="svg1"
   inkscape:version="1.4.2 (f4327f4, 2025-05-13)"
   sodipodi:docname="Boite v1.svg"
   xmlns:inkscape="http://www.inkscape.org/namespaces/inkscape"
   xmlns:sodipodi="http://sodipodi.sourceforge.net/DTD/sodipodi-0.dtd"
   xmlns="http://www.w3.org/2000/svg"
   xmlns:svg="http://www.w3.org/2000/svg">
  <sodipodi:namedview
     id="namedview1"
     pagecolor="#ffffff"
     bordercolor="#000000"
     borderopacity="0.25"
     inkscape:showpageshadow="2"
     inkscape:pageopacity="0.0"
     inkscape:pagecheckerboard="0"
     inkscape:deskcolor="#d1d1d1"
     inkscape:document-units="mm"
     inkscape:zoom="0.43295455"
     inkscape:cx="311.81102"
     inkscape:cy="288.71391"
     inkscape:window-width="1280"
     inkscape:window-height="730"
     inkscape:window-x="-6"
     inkscape:window-y="-6"
     inkscape:window-maximized="1"
     inkscape:current-layer="g2"
     showgrid="true">
    <inkscape:grid
       id="grid24"
       units="mm"
       originx="0"
       originy="0"
       spacingx="1"
       spacingy="0.99999995"
       empcolor="#0099e5"
       empopacity="0.05098039"
       color="#0099e5"
       opacity="0.02745098"
       empspacing="5"
       enabled="true"
       visible="true" />
  </sodipodi:namedview>
  <defs
     id="defs1" />
  <g
     inkscape:label="Generic Box"
     inkscape:groupmode="layer"
     id="g14"
     transform="translate(0.05,0.05)">
    <g
       id="g13">
      <path
         style="fill:none;stroke:#ff0000;stroke-width:0.05;stroke-dasharray:none;stroke-opacity:1"
         id="Lid_Top"
         d="m 16,18.444444 h 16.222 v -5 h 8.361 v 5 h 8.561 v -5 h 8.361 v 5 h 8.561 v -5 h 8.361 v 5 h 8.561 v -5 h 8.361 v 5 h 8.561 v -5 h 8.361 v 5 h 8.561 v -5 h 8.361 v 5 h 8.561 v -5 h 8.361 v 5 h 8.561 v -5 h 8.361 v 5 h 8.561 v -5 h 8.361 v 5 h 8.561 v -5 h 8.361 v 5 H 209 v 16.222 h 5 v 8.361 h -5 v 8.561 h 5 v 8.361 h -5 v 8.561 h 5 v 8.361 h -5 v 8.561 h 5 v 8.361 h -5 v 8.560996 h 5 v 8.361 h -5 v 8.561 h 5 v 8.361 h -5 v 8.561 h 5 v 8.361 h -5 v 8.561 h 5 v 8.361 h -5 v 8.561 h 5 v 8.361 h -5 v 8.561 h 5 v 8.361 h -5 v 16.119 h -16.222 v 5 h -8.361 v -5 h -8.561 v 5 h -8.361 v -5 h -8.561 v 5 h -8.361 v -5 h -8.561 v 5 h -8.361 v -5 h -8.561 v 5 h -8.361 v -5 h -8.561 v 5 h -8.361 v -5 h -8.561 v 5 h -8.361 v -5 h -8.561 v 5 h -8.361 v -5 h -8.561 v 5 h -8.361 v -5 H 40.48 v 5 h -8.361 v -5 H 16 v -16.222 h -5 v -8.361 h 5 v -8.561 h -5 v -8.361 h 5 v -8.561 h -5 v -8.361 h 5 v -8.561 h -5 v -8.361 h 5 v -8.561 h -5 v -8.361 h 5 v -8.561 h -5 v -8.361 h 5 v -8.560996 h -5 v -8.361 h 5 v -8.561 h -5 v -8.361 h 5 v -8.561 h -5 v -8.361 h 5 v -8.561 h -5 v -8.361 h 5 z" />
      <path
         style="fill:none;stroke:#ff0000;stroke-width:0.05;stroke-dasharray:none;stroke-opacity:1"
         id="Lid_Front"
         d="m 224.88889,40.111111 v -5 h 5 16.022 v 5 h 8.561 v -5 h 8.361 v 5 h 8.561 v -5 h 8.361 v 5 h 8.561 v -5 h 8.361 v 5 h 8.561 v -5 h 8.361 v 5 h 8.561 v -5 h 8.361 v 5 h 8.561 v -5 h 8.361 v 5 h 8.561 v -5 h 8.361 v 5 h 8.561 v -5 h 8.361 v 5 h 8.561 v -5 h 8.361 v 5 h 8.561 v -5 h 16.119 5 v 5 10 5 h -5 -193 -5 v -5 z" />
      <path
         style="fill:none;stroke:#ff0000;stroke-width:0.05;stroke-dasharray:none;stroke-opacity:1"
         id="Front"
         d="m 14.972222,241.77778 v -5 h 5 109.533338 83.46666 5 v 5 9.326 h -5 v 8.561 h 5 v 8.361 h -5 v 8.561 h 5 v 8.361 h -5 v 8.561 h 5 v 8.361 h -5 v 8.561 h 5 v 8.361 h -5 v 8.561 h 5 v 9.425 5 h -5 -84.38333 -108.616668 -5 v -5 -9.326 h 5 v -8.561 h -5 v -8.361 h 5 v -8.561 h -5 v -8.361 h 5 v -8.561 h -5 v -8.361 h 5 v -8.561 h -5 v -8.361 h 5 v -8.561 h -5 z"
         sodipodi:nodetypes="ccccccccccccccccccccccccccccccccccccccccccccccccccccccc" />
      <path
         style="fill:none;stroke:#ff0000;stroke-width:0.05;stroke-dasharray:none;stroke-opacity:1"
         id="Lid_Back"
         d="m 224.55556,82.888889 v -5 h 5 16.022 v 5 h 8.561 v -5 h 8.361 v 5 h 8.561 v -5 h 8.361 v 5 h 8.561 v -5 h 8.361 v 5 h 8.561 v -5 h 8.361 v 5 h 8.561 v -5 h 8.361 v 5 h 8.561 v -5 h 8.361 v 5 h 8.561 v -5 h 8.361 v 5 h 8.561 v -5 h 8.361 v 5 h 8.561 v -5 h 8.361 v 5 h 8.561 v -5 h 16.119 5 v 5 -0.2 h -5 v 7.7 h 5 v 7.5 h -5 -198 v -7.5 h 5 v -7.7 h -5 v 0.2 -5 z" />
      <path
         style="fill:none;stroke:#ff0000;stroke-width:0.05;stroke-dasharray:none;stroke-opacity:1"
         id="Back"
         d="m 230.16666,237.69444 h 193 v 15.2 h 5 v 16.048 h -5 v 8.561 h 5 v 8.361 h -5 v 8.561 h 5 v 8.361 h -5 v 8.561 h 5 v 8.361 h -5 v 8.561 h 5 v 9.425 5 h -5 -193 -5 v -5 -9.326 h 5 v -8.561 h -5 v -8.361 h 5 v -8.561 h -5 v -8.361 h 5 v -8.561 h -5 v -8.361 h 5 v -8.561 h -5 v -16.147 h 5 z"
         sodipodi:nodetypes="ccccccccccccccccccccccccccccccccccccccccccccc" />
      <path
         style="fill:none;stroke:#ff0000;stroke-width:0.05;stroke-dasharray:none;stroke-opacity:1"
         id="Lid_Left"
         d="m 226.66667,124.44445 v -5.00001 h 16.022 v 5.00001 h 8.561 v -5.00001 h 8.361 v 5.00001 h 8.561 v -5.00001 h 8.361 v 5.00001 h 8.561 v -5.00001 h 8.361 v 5.00001 h 8.561 v -5.00001 h 8.361 v 5.00001 h 8.561 v -5.00001 h 8.361 v 5.00001 h 8.561 v -5.00001 h 8.361 v 5.00001 h 8.561 v -5.00001 h 8.361 v 5.00001 h 8.561 v -5.00001 h 8.361 v 5.00001 h 8.561 v -5.00001 h 8.361 v 5.00001 h 8.561 v -5.00001 h 16.119 v 5.00001 10 5 h -182.8 c 0,-8.389 -6.704,-13.68 -10.2,-14.44 v -0.56 -5.00001 z" />
      <path
         style="fill:none;stroke:#ff0000;stroke-width:0.05;stroke-dasharray:none;stroke-opacity:1"
         id="Left"
         d="m 24.222223,376.77778 h -5 c -8.279,0 -15.0000001,-6.721 -15.0000001,-15 0,-8.279 6.7210001,-15 15.0000001,-15 8.279,0 15,6.721 15,15 H 217.22222 v 5 9.526 h 5 v 8.361 h -5 v 8.561 h 5 v 8.361 h -5 v 8.561 h 5 v 8.361 h -5 v 8.561 h 5 v 8.361 h -5 v 8.561 h 5 v 8.361 h -5 v 9.425 5 H 24.222223 v -5 -9.526 h -5 v -8.361 h 5 v -8.561 h -5 v -8.361 h 5 v -8.561 h -5 v -8.361 h 5 v -8.561 h -5 v -8.361 h 5 v -16.347 m 5,-15 c 0,5.519 -4.481,10 -10,10 -5.519,0 -10.0000001,-4.481 -10.0000001,-10 0,-5.519 4.4810001,-10 10.0000001,-10 5.519,0 10,4.481 10,10 m -10,0 v -7.5 h 5 v 7.5 z"
         sodipodi:nodetypes="cssscccccccccccccccccccccccccccccccccccccccccccccssscccccc" />
      <path
         style="fill:none;stroke:#ff0000;stroke-width:0.05;stroke-dasharray:none;stroke-opacity:1"
         id="Lid_Right"
         d="m 227.88889,169.66667 v -5 h 16.022 v 5 h 8.561 v -5 h 8.361 v 5 h 8.561 v -5 h 8.361 v 5 h 8.561 v -5 h 8.361 v 5 h 8.561 v -5 h 8.361 v 5 h 8.561 v -5 h 8.361 v 5 h 8.561 v -5 h 8.361 v 5 h 8.561 v -5 h 8.361 v 5 h 8.561 v -5 h 8.361 v 5 h 8.561 v -5 h 8.361 v 5 h 8.561 v -5 h 16.119 v 5 -0.2 0.76 c -3.496,0.76 -10.2,6.051 -10.2,14.44 h -182.8 v -15 -5 z" />
      <path
         style="fill:none;stroke:#ff0000;stroke-width:0.05;stroke-dasharray:none;stroke-opacity:1"
         id="Right"
         d="m 235.33333,366.77778 v -5 h 178 5 c 0,-8.279 6.721,-15 15,-15 8.279,0 15,6.721 15,15 0,8.279 -6.721,15 -15,15 h -5 v 16.448 h 5 v 8.361 h -5 v 8.561 h 5 v 8.361 h -5 v 8.561 h 5 v 8.361 h -5 v 8.561 h 5 v 8.361 h -5 v 9.425 5 h -193 v -5 -9.526 h -5 v -8.361 h 5 v -8.561 h -5 v -8.361 h 5 v -8.561 h -5 v -8.361 h 5 v -8.561 h -5 v -8.361 h 5 v -8.561 h -5 v -8.361 h 5 v -9.425 m 208,-5 c 0,5.519 -4.481,10 -10,10 -5.519,0 -10,-4.481 -10,-10 0,-5.519 4.481,-10 10,-10 5.519,0 10,4.481 10,10 m -10,0 v -7.5 h -5 v 7.5 z"
         sodipodi:nodetypes="ccccssscccccccccccccccccccccccccccccccccccccccccccssscccccc" />
      <rect
         style="fill:none;stroke:#ff0000;stroke-width:0.0499999;stroke-dasharray:none;stroke-opacity:1"
         id="rect14"
         width="170"
         height="50"
         x="26.838888"
         y="140.50555" />
      <rect
         style="fill:#808080;fill-opacity:1;fill-rule:nonzero;stroke:#000000;stroke-width:0.0205633;stroke-dasharray:none;stroke-opacity:1"
         id="rect27"
         width="5.4794369"
         height="105.02943"
         x="130.11696"
         y="236.75584" />
      <rect
         style="fill:#808080;fill-opacity:1;fill-rule:nonzero;stroke:#000000;stroke-width:0.0205633;stroke-dasharray:none;stroke-opacity:1"
         id="rect27-1"
         width="5.4794369"
         height="105.02943"
         x="339.69571"
         y="237.79015" />
    </g>
    <g
       inkscape:label="Clip"
       id="g1" />
    <g
       id="g2">
      <path
         style="fill:none;stroke:#ff0000;stroke-width:0.2"
         inkscape:label="lattice"
         d="m 28.890235,53.144747 c 0,-0.130936 6.459599,-2.618713 6.799578,-2.618713 0.339979,0 6.799578,2.487778 6.799578,2.618713 m 1.699894,-2.618714 c -0.339979,0 -6.799578,-2.487778 -6.799578,-2.618713 0,-0.130936 6.459599,-2.618713 6.799578,-2.618713 m 1e-6,1e-6 c 0.339979,0 6.799578,2.487778 6.799578,2.618713 0,0.130936 -6.459599,2.618713 -6.799578,2.618713 m 1.699895,2.618713 c 0,-0.130936 6.459599,-2.618713 6.799578,-2.618713 0.339979,0 6.799578,2.487778 6.799578,2.618713 m 1.699894,-2.618714 c -0.339979,0 -6.799578,-2.487778 -6.799578,-2.618713 0,-0.130936 6.459599,-2.618713 6.799578,-2.618713 m 10e-7,1e-6 c 0.339979,0 6.799578,2.487778 6.799578,2.618713 0,0.130936 -6.459599,2.618713 -6.799578,2.618713 m 1.699895,2.618713 c 0,-0.130936 6.459599,-2.618713 6.799578,-2.618713 0.339979,0 6.799578,2.487778 6.799578,2.618713 m 1.699894,-2.618714 c -0.339979,0 -6.799578,-2.487778 -6.799578,-2.618713 0,-0.130936 6.459599,-2.618713 6.799578,-2.618713 m 10e-7,1e-6 c 0.339979,0 6.799578,2.487778 6.799578,2.618713 0,0.130936 -6.459599,2.618713 -6.799578,2.618713 m 1.699895,2.618713 c 0,-0.130936 6.459599,-2.618713 6.799578,-2.618713 0.339979,0 6.799578,2.487778 6.799578,2.618713 m 1.699894,-2.618714 c -0.339979,0 -6.799578,-2.487778 -6.799578,-2.618713 0,-0.130936 6.459599,-2.618713 6.799578,-2.618713 m 1e-6,1e-6 c 0.339979,0 6.799576,2.487778 6.799576,2.618713 0,0.130936 -6.459597,2.618713 -6.799576,2.618713 m 1.699895,2.618713 c 0,-0.130936 6.459601,-2.618713 6.799581,-2.618713 0.33998,0 6.79957,2.487778 6.79957,2.618713 m 1.6999,-2.618714 c -0.33998,0 -6.79958,-2.487778 -6.79958,-2.618713 0,-0.130936 6.4596,-2.618713 6.79958,-2.618713 m 0,1e-6 c 0.33998,0 6.79958,2.487778 6.79958,2.618713 0,0.130936 -6.4596,2.618713 -6.79958,2.618713 m 1.69989,2.618713 c 0,-0.130936 6.4596,-2.618713 6.79958,-2.618713 0.33998,0 6.79958,2.487778 6.79958,2.618713 m 1.69989,-2.618714 c -0.33997,0 -6.79957,-2.487778 -6.79957,-2.618713 0,-0.130936 6.4596,-2.618713 6.79957,-2.618713 m 1e-5,1e-6 c 0.33998,0 6.79957,2.487778 6.79957,2.618713 0,0.130936 -6.45959,2.618713 -6.79957,2.618713 m 1.69989,2.618713 c 0,-0.130936 6.4596,-2.618713 6.79958,-2.618713 0.33998,0 6.79958,2.487778 6.79958,2.618713 m 1.69989,-2.618714 c -0.33998,0 -6.79958,-2.487778 -6.79958,-2.618713 0,-0.130936 6.4596,-2.618713 6.79958,-2.618713 m 0,1e-6 c 0.33998,0 6.79958,2.487778 6.79958,2.618713 0,0.130936 -6.4596,2.618713 -6.79958,2.618713 m 1.6999,2.618713 c 0,-0.130936 6.4596,-2.618713 6.79957,-2.618713 0.33998,0 6.79958,2.487778 6.79958,2.618713 m 1.6999,-2.618714 c -0.33998,0 -6.79958,-2.487778 -6.79958,-2.618713 0,-0.130936 6.4596,-2.618713 6.79958,-2.618713 m 0,1e-6 c 0.33998,0 6.79958,2.487778 6.79958,2.618713 0,0.130936 -6.4596,2.618713 -6.79958,2.618713 m 1.69989,2.618713 c 0,-0.130936 6.4596,-2.618713 6.79958,-2.618713 0.33998,0 6.79958,2.487778 6.79958,2.618713 m 1.69989,-2.618714 c -0.33998,0 -6.79958,-2.487778 -6.79958,-2.618713 0,-0.130936 6.4596,-2.618713 6.79958,-2.618713 m 0,1e-6 c 0.33998,0 6.79958,2.487778 6.79958,2.618713 0,0.130936 -6.4596,2.618713 -6.79958,2.618713 m 1.6999,2.618713 c 0,-0.130936 6.4596,-2.618713 6.79958,-2.618713 0.33998,0 6.79957,2.487778 6.79957,2.618713 M 28.890235,63.619601 c 0,-0.130936 6.459599,-2.618713 6.799578,-2.618713 0.339979,0 6.799578,2.487778 6.799578,2.618713 M 28.890234,53.144747 c 0,0.130936 6.459599,2.618713 6.799578,2.618713 0.339979,0 6.799578,-2.487778 6.799578,-2.618713 m 1.699895,7.85614 c -0.339979,0 -6.799578,-2.487778 -6.799578,-2.618713 0,-0.130936 6.459599,-2.618713 6.799578,-2.618713 m 1e-6,10e-7 c 0.339979,0 6.799578,2.487778 6.799578,2.618713 0,0.130936 -6.459599,2.618713 -6.799578,2.618713 m 1.699895,2.618713 c 0,-0.130936 6.459599,-2.618713 6.799578,-2.618713 0.339979,0 6.799578,2.487778 6.799578,2.618713 M 45.88918,53.144747 c 0,0.130936 6.459599,2.618713 6.799578,2.618713 0.339979,0 6.799578,-2.487778 6.799578,-2.618713 m 1.699895,7.85614 c -0.339979,0 -6.799578,-2.487778 -6.799578,-2.618713 0,-0.130936 6.459599,-2.618713 6.799578,-2.618713 m 10e-7,10e-7 c 0.339979,0 6.799578,2.487778 6.799578,2.618713 0,0.130936 -6.459599,2.618713 -6.799578,2.618713 m 1.699895,2.618713 c 0,-0.130936 6.459599,-2.618713 6.799578,-2.618713 0.339979,0 6.799578,2.487778 6.799578,2.618713 M 62.888126,53.144747 c 0,0.130936 6.459599,2.618713 6.799578,2.618713 0.339979,0 6.799578,-2.487778 6.799578,-2.618713 m 1.699895,7.85614 c -0.339979,0 -6.799578,-2.487778 -6.799578,-2.618713 0,-0.130936 6.459599,-2.618713 6.799578,-2.618713 m 10e-7,10e-7 c 0.339979,0 6.799578,2.487778 6.799578,2.618713 0,0.130936 -6.459599,2.618713 -6.799578,2.618713 m 1.699895,2.618713 c 0,-0.130936 6.459599,-2.618713 6.799578,-2.618713 0.339979,0 6.799578,2.487778 6.799578,2.618713 M 79.887072,53.144747 c 0,0.130936 6.459599,2.618713 6.799578,2.618713 0.339979,0 6.799578,-2.487778 6.799578,-2.618713 m 1.699895,7.85614 c -0.339979,0 -6.799578,-2.487778 -6.799578,-2.618713 0,-0.130936 6.459599,-2.618713 6.799578,-2.618713 m 1e-6,10e-7 c 0.339979,0 6.799576,2.487778 6.799576,2.618713 0,0.130936 -6.459597,2.618713 -6.799576,2.618713 m 1.699895,2.618713 c 0,-0.130936 6.459601,-2.618713 6.799581,-2.618713 0.33998,0 6.79957,2.487778 6.79957,2.618713 M 96.886018,53.144747 c 0,0.130936 6.459602,2.618713 6.799582,2.618713 0.33997,0 6.79957,-2.487778 6.79957,-2.618713 m 1.6999,7.85614 c -0.33998,0 -6.79958,-2.487778 -6.79958,-2.618713 0,-0.130936 6.4596,-2.618713 6.79958,-2.618713 m 0,10e-7 c 0.33998,0 6.79958,2.487778 6.79958,2.618713 0,0.130936 -6.4596,2.618713 -6.79958,2.618713 m 1.69989,2.618713 c 0,-0.130936 6.4596,-2.618713 6.79958,-2.618713 0.33998,0 6.79958,2.487778 6.79958,2.618713 M 113.88496,53.144747 c 0,0.130936 6.4596,2.618713 6.79958,2.618713 0.33998,0 6.79958,-2.487778 6.79958,-2.618713 m 1.69989,7.85614 c -0.33997,0 -6.79957,-2.487778 -6.79957,-2.618713 0,-0.130936 6.4596,-2.618713 6.79957,-2.618713 m 1e-5,10e-7 c 0.33998,0 6.79957,2.487778 6.79957,2.618713 0,0.130936 -6.45959,2.618713 -6.79957,2.618713 m 1.69989,2.618713 c 0,-0.130936 6.4596,-2.618713 6.79958,-2.618713 0.33998,0 6.79958,2.487778 6.79958,2.618713 M 130.88391,53.144747 c 0,0.130936 6.4596,2.618713 6.79958,2.618713 0.33998,0 6.79958,-2.487778 6.79958,-2.618713 m 1.69989,7.85614 c -0.33998,0 -6.79958,-2.487778 -6.79958,-2.618713 0,-0.130936 6.4596,-2.618713 6.79958,-2.618713 m 0,10e-7 c 0.33998,0 6.79958,2.487778 6.79958,2.618713 0,0.130936 -6.4596,2.618713 -6.79958,2.618713 m 1.6999,2.618713 c 0,-0.130936 6.4596,-2.618713 6.79957,-2.618713 0.33998,0 6.79958,2.487778 6.79958,2.618713 M 147.88286,53.144747 c 0,0.130936 6.45959,2.618713 6.79957,2.618713 0.33998,0 6.79958,-2.487778 6.79958,-2.618713 m 1.6999,7.85614 c -0.33998,0 -6.79958,-2.487778 -6.79958,-2.618713 0,-0.130936 6.4596,-2.618713 6.79958,-2.618713 m 0,10e-7 c 0.33998,0 6.79958,2.487778 6.79958,2.618713 0,0.130936 -6.4596,2.618713 -6.79958,2.618713 m 1.69989,2.618713 c 0,-0.130936 6.4596,-2.618713 6.79958,-2.618713 0.33998,0 6.79958,2.487778 6.79958,2.618713 M 164.8818,53.144747 c 0,0.130936 6.4596,2.618713 6.79958,2.618713 0.33998,0 6.79958,-2.487778 6.79958,-2.618713 m 1.69989,7.85614 c -0.33998,0 -6.79958,-2.487778 -6.79958,-2.618713 0,-0.130936 6.4596,-2.618713 6.79958,-2.618713 m 0,10e-7 c 0.33998,0 6.79958,2.487778 6.79958,2.618713 0,0.130936 -6.4596,2.618713 -6.79958,2.618713 m 1.6999,2.618713 c 0,-0.130936 6.4596,-2.618713 6.79958,-2.618713 0.33998,0 6.79957,2.487778 6.79957,2.618713 M 181.88075,53.144747 c 0,0.130936 6.4596,2.618713 6.79958,2.618713 0.33997,0 6.79957,-2.487778 6.79957,-2.618713 M 28.890235,74.094454 c 0,-0.130936 6.459599,-2.618713 6.799578,-2.618713 0.339979,0 6.799578,2.487778 6.799578,2.618713 M 28.890234,63.6196 c 0,0.130936 6.459599,2.618713 6.799578,2.618713 0.339979,0 6.799578,-2.487778 6.799578,-2.618713 m 1.699895,7.85614 c -0.339979,0 -6.799578,-2.487778 -6.799578,-2.618713 0,-0.130936 6.459599,-2.618713 6.799578,-2.618713 m 1e-6,10e-7 c 0.339979,0 6.799578,2.487778 6.799578,2.618713 0,0.130936 -6.459599,2.618713 -6.799578,2.618713 m 1.699895,2.618713 c 0,-0.130936 6.459599,-2.618713 6.799578,-2.618713 0.339979,0 6.799578,2.487778 6.799578,2.618713 M 45.88918,63.6196 c 0,0.130936 6.459599,2.618713 6.799578,2.618713 0.339979,0 6.799578,-2.487778 6.799578,-2.618713 m 1.699895,7.85614 c -0.339979,0 -6.799578,-2.487778 -6.799578,-2.618713 0,-0.130936 6.459599,-2.618713 6.799578,-2.618713 m 10e-7,10e-7 c 0.339979,0 6.799578,2.487778 6.799578,2.618713 0,0.130936 -6.459599,2.618713 -6.799578,2.618713 m 1.699895,2.618713 c 0,-0.130936 6.459599,-2.618713 6.799578,-2.618713 0.339979,0 6.799578,2.487778 6.799578,2.618713 M 62.888126,63.6196 c 0,0.130936 6.459599,2.618713 6.799578,2.618713 0.339979,0 6.799578,-2.487778 6.799578,-2.618713 m 1.699895,7.85614 c -0.339979,0 -6.799578,-2.487778 -6.799578,-2.618713 0,-0.130936 6.459599,-2.618713 6.799578,-2.618713 m 10e-7,10e-7 c 0.339979,0 6.799578,2.487778 6.799578,2.618713 0,0.130936 -6.459599,2.618713 -6.799578,2.618713 m 1.699895,2.618713 c 0,-0.130936 6.459599,-2.618713 6.799578,-2.618713 0.339979,0 6.799578,2.487778 6.799578,2.618713 M 79.887072,63.6196 c 0,0.130936 6.459599,2.618713 6.799578,2.618713 0.339979,0 6.799578,-2.487778 6.799578,-2.618713 m 1.699895,7.85614 c -0.339979,0 -6.799578,-2.487778 -6.799578,-2.618713 0,-0.130936 6.459599,-2.618713 6.799578,-2.618713 m 1e-6,10e-7 c 0.339979,0 6.799576,2.487778 6.799576,2.618713 0,0.130936 -6.459597,2.618713 -6.799576,2.618713 m 1.699895,2.618713 c 0,-0.130936 6.459601,-2.618713 6.799581,-2.618713 0.33998,0 6.79957,2.487778 6.79957,2.618713 M 96.886018,63.6196 c 0,0.130936 6.459602,2.618713 6.799582,2.618713 0.33997,0 6.79957,-2.487778 6.79957,-2.618713 m 1.6999,7.85614 c -0.33998,0 -6.79958,-2.487778 -6.79958,-2.618713 0,-0.130936 6.4596,-2.618713 6.79958,-2.618713 m 0,10e-7 c 0.33998,0 6.79958,2.487778 6.79958,2.618713 0,0.130936 -6.4596,2.618713 -6.79958,2.618713 m 1.69989,2.618713 c 0,-0.130936 6.4596,-2.618713 6.79958,-2.618713 0.33998,0 6.79958,2.487778 6.79958,2.618713 M 113.88496,63.6196 c 0,0.130936 6.4596,2.618713 6.79958,2.618713 0.33998,0 6.79958,-2.487778 6.79958,-2.618713 m 1.69989,7.85614 c -0.33997,0 -6.79957,-2.487778 -6.79957,-2.618713 0,-0.130936 6.4596,-2.618713 6.79957,-2.618713 m 1e-5,10e-7 c 0.33998,0 6.79957,2.487778 6.79957,2.618713 0,0.130936 -6.45959,2.618713 -6.79957,2.618713 m 1.69989,2.618713 c 0,-0.130936 6.4596,-2.618713 6.79958,-2.618713 0.33998,0 6.79958,2.487778 6.79958,2.618713 M 130.88391,63.6196 c 0,0.130936 6.4596,2.618713 6.79958,2.618713 0.33998,0 6.79958,-2.487778 6.79958,-2.618713 m 1.69989,7.85614 c -0.33998,0 -6.79958,-2.487778 -6.79958,-2.618713 0,-0.130936 6.4596,-2.618713 6.79958,-2.618713 m 0,10e-7 c 0.33998,0 6.79958,2.487778 6.79958,2.618713 0,0.130936 -6.4596,2.618713 -6.79958,2.618713 m 1.6999,2.618713 c 0,-0.130936 6.4596,-2.618713 6.79957,-2.618713 0.33998,0 6.79958,2.487778 6.79958,2.618713 M 147.88286,63.6196 c 0,0.130936 6.45959,2.618713 6.79957,2.618713 0.33998,0 6.79958,-2.487778 6.79958,-2.618713 m 1.6999,7.85614 c -0.33998,0 -6.79958,-2.487778 -6.79958,-2.618713 0,-0.130936 6.4596,-2.618713 6.79958,-2.618713 m 0,10e-7 c 0.33998,0 6.79958,2.487778 6.79958,2.618713 0,0.130936 -6.4596,2.618713 -6.79958,2.618713 m 1.69989,2.618713 c 0,-0.130936 6.4596,-2.618713 6.79958,-2.618713 0.33998,0 6.79958,2.487778 6.79958,2.618713 M 164.8818,63.6196 c 0,0.130936 6.4596,2.618713 6.79958,2.618713 0.33998,0 6.79958,-2.487778 6.79958,-2.618713 m 1.69989,7.85614 c -0.33998,0 -6.79958,-2.487778 -6.79958,-2.618713 0,-0.130936 6.4596,-2.618713 6.79958,-2.618713 m 0,10e-7 c 0.33998,0 6.79958,2.487778 6.79958,2.618713 0,0.130936 -6.4596,2.618713 -6.79958,2.618713 m 1.6999,2.618713 c 0,-0.130936 6.4596,-2.618713 6.79958,-2.618713 0.33998,0 6.79957,2.487778 6.79957,2.618713 M 181.88075,63.6196 c 0,0.130936 6.4596,2.618713 6.79958,2.618713 0.33997,0 6.79957,-2.487778 6.79957,-2.618713 M 28.890235,84.569308 c 0,-0.130936 6.459599,-2.618713 6.799578,-2.618713 0.339979,0 6.799578,2.487778 6.799578,2.618713 M 28.890234,74.094454 c 0,0.130936 6.459599,2.618713 6.799578,2.618713 0.339979,0 6.799578,-2.487778 6.799578,-2.618713 m 1.699895,7.85614 c -0.339979,0 -6.799578,-2.487778 -6.799578,-2.618713 0,-0.130936 6.459599,-2.618713 6.799578,-2.618713 m 1e-6,10e-7 c 0.339979,0 6.799578,2.487778 6.799578,2.618713 0,0.130936 -6.459599,2.618713 -6.799578,2.618713 m 1.699895,2.618713 c 0,-0.130936 6.459599,-2.618713 6.799578,-2.618713 0.339979,0 6.799578,2.487778 6.799578,2.618713 M 45.88918,74.094454 c 0,0.130936 6.459599,2.618713 6.799578,2.618713 0.339979,0 6.799578,-2.487778 6.799578,-2.618713 m 1.699895,7.85614 c -0.339979,0 -6.799578,-2.487778 -6.799578,-2.618713 0,-0.130936 6.459599,-2.618713 6.799578,-2.618713 m 10e-7,10e-7 c 0.339979,0 6.799578,2.487778 6.799578,2.618713 0,0.130936 -6.459599,2.618713 -6.799578,2.618713 m 1.699895,2.618713 c 0,-0.130936 6.459599,-2.618713 6.799578,-2.618713 0.339979,0 6.799578,2.487778 6.799578,2.618713 M 62.888126,74.094454 c 0,0.130936 6.459599,2.618713 6.799578,2.618713 0.339979,0 6.799578,-2.487778 6.799578,-2.618713 m 1.699895,7.85614 c -0.339979,0 -6.799578,-2.487778 -6.799578,-2.618713 0,-0.130936 6.459599,-2.618713 6.799578,-2.618713 m 10e-7,10e-7 c 0.339979,0 6.799578,2.487778 6.799578,2.618713 0,0.130936 -6.459599,2.618713 -6.799578,2.618713 m 1.699895,2.618713 c 0,-0.130936 6.459599,-2.618713 6.799578,-2.618713 0.339979,0 6.799578,2.487778 6.799578,2.618713 M 79.887072,74.094454 c 0,0.130936 6.459599,2.618713 6.799578,2.618713 0.339979,0 6.799578,-2.487778 6.799578,-2.618713 m 1.699895,7.85614 c -0.339979,0 -6.799578,-2.487778 -6.799578,-2.618713 0,-0.130936 6.459599,-2.618713 6.799578,-2.618713 m 1e-6,10e-7 c 0.339979,0 6.799576,2.487778 6.799576,2.618713 0,0.130936 -6.459597,2.618713 -6.799576,2.618713 m 1.699895,2.618713 c 0,-0.130936 6.459601,-2.618713 6.799581,-2.618713 0.33998,0 6.79957,2.487778 6.79957,2.618713 M 96.886018,74.094454 c 0,0.130936 6.459602,2.618713 6.799582,2.618713 0.33997,0 6.79957,-2.487778 6.79957,-2.618713 m 1.6999,7.85614 c -0.33998,0 -6.79958,-2.487778 -6.79958,-2.618713 0,-0.130936 6.4596,-2.618713 6.79958,-2.618713 m 0,10e-7 c 0.33998,0 6.79958,2.487778 6.79958,2.618713 0,0.130936 -6.4596,2.618713 -6.79958,2.618713 m 1.69989,2.618713 c 0,-0.130936 6.4596,-2.618713 6.79958,-2.618713 0.33998,0 6.79958,2.487778 6.79958,2.618713 M 113.88496,74.094454 c 0,0.130936 6.4596,2.618713 6.79958,2.618713 0.33998,0 6.79958,-2.487778 6.79958,-2.618713 m 1.69989,7.85614 c -0.33997,0 -6.79957,-2.487778 -6.79957,-2.618713 0,-0.130936 6.4596,-2.618713 6.79957,-2.618713 m 1e-5,10e-7 c 0.33998,0 6.79957,2.487778 6.79957,2.618713 0,0.130936 -6.45959,2.618713 -6.79957,2.618713 m 1.69989,2.618713 c 0,-0.130936 6.4596,-2.618713 6.79958,-2.618713 0.33998,0 6.79958,2.487778 6.79958,2.618713 M 130.88391,74.094454 c 0,0.130936 6.4596,2.618713 6.79958,2.618713 0.33998,0 6.79958,-2.487778 6.79958,-2.618713 m 1.69989,7.85614 c -0.33998,0 -6.79958,-2.487778 -6.79958,-2.618713 0,-0.130936 6.4596,-2.618713 6.79958,-2.618713 m 0,10e-7 c 0.33998,0 6.79958,2.487778 6.79958,2.618713 0,0.130936 -6.4596,2.618713 -6.79958,2.618713 m 1.6999,2.618713 c 0,-0.130936 6.4596,-2.618713 6.79957,-2.618713 0.33998,0 6.79958,2.487778 6.79958,2.618713 M 147.88286,74.094454 c 0,0.130936 6.45959,2.618713 6.79957,2.618713 0.33998,0 6.79958,-2.487778 6.79958,-2.618713 m 1.6999,7.85614 c -0.33998,0 -6.79958,-2.487778 -6.79958,-2.618713 0,-0.130936 6.4596,-2.618713 6.79958,-2.618713 m 0,10e-7 c 0.33998,0 6.79958,2.487778 6.79958,2.618713 0,0.130936 -6.4596,2.618713 -6.79958,2.618713 m 1.69989,2.618713 c 0,-0.130936 6.4596,-2.618713 6.79958,-2.618713 0.33998,0 6.79958,2.487778 6.79958,2.618713 M 164.8818,74.094454 c 0,0.130936 6.4596,2.618713 6.79958,2.618713 0.33998,0 6.79958,-2.487778 6.79958,-2.618713 m 1.69989,7.85614 c -0.33998,0 -6.79958,-2.487778 -6.79958,-2.618713 0,-0.130936 6.4596,-2.618713 6.79958,-2.618713 m 0,10e-7 c 0.33998,0 6.79958,2.487778 6.79958,2.618713 0,0.130936 -6.4596,2.618713 -6.79958,2.618713 m 1.6999,2.618713 c 0,-0.130936 6.4596,-2.618713 6.79958,-2.618713 0.33998,0 6.79957,2.487778 6.79957,2.618713 M 181.88075,74.094454 c 0,0.130936 6.4596,2.618713 6.79958,2.618713 0.33997,0 6.79957,-2.487778 6.79957,-2.618713 M 28.890235,95.044161 c 0,-0.130936 6.459599,-2.618713 6.799578,-2.618713 0.339979,0 6.799578,2.487778 6.799578,2.618713 M 28.890234,84.569307 c 0,0.130936 6.459599,2.618713 6.799578,2.618713 0.339979,0 6.799578,-2.487778 6.799578,-2.618713 m 1.699895,7.85614 c -0.339979,0 -6.799578,-2.487778 -6.799578,-2.618713 0,-0.130936 6.459599,-2.618713 6.799578,-2.618713 m 1e-6,10e-7 c 0.339979,0 6.799578,2.487778 6.799578,2.618713 0,0.130936 -6.459599,2.618713 -6.799578,2.618713 m 1.699895,2.618713 c 0,-0.130936 6.459599,-2.618713 6.799578,-2.618713 0.339979,0 6.799578,2.487778 6.799578,2.618713 M 45.88918,84.569307 c 0,0.130936 6.459599,2.618713 6.799578,2.618713 0.339979,0 6.799578,-2.487778 6.799578,-2.618713 m 1.699895,7.85614 c -0.339979,0 -6.799578,-2.487778 -6.799578,-2.618713 0,-0.130936 6.459599,-2.618713 6.799578,-2.618713 m 10e-7,10e-7 c 0.339979,0 6.799578,2.487778 6.799578,2.618713 0,0.130936 -6.459599,2.618713 -6.799578,2.618713 m 1.699895,2.618713 c 0,-0.130936 6.459599,-2.618713 6.799578,-2.618713 0.339979,0 6.799578,2.487778 6.799578,2.618713 M 62.888126,84.569307 c 0,0.130936 6.459599,2.618713 6.799578,2.618713 0.339979,0 6.799578,-2.487778 6.799578,-2.618713 m 1.699895,7.85614 c -0.339979,0 -6.799578,-2.487778 -6.799578,-2.618713 0,-0.130936 6.459599,-2.618713 6.799578,-2.618713 m 10e-7,10e-7 c 0.339979,0 6.799578,2.487778 6.799578,2.618713 0,0.130936 -6.459599,2.618713 -6.799578,2.618713 m 1.699895,2.618713 c 0,-0.130936 6.459599,-2.618713 6.799578,-2.618713 0.339979,0 6.799578,2.487778 6.799578,2.618713 M 79.887072,84.569307 c 0,0.130936 6.459599,2.618713 6.799578,2.618713 0.339979,0 6.799578,-2.487778 6.799578,-2.618713 m 1.699895,7.85614 c -0.339979,0 -6.799578,-2.487778 -6.799578,-2.618713 0,-0.130936 6.459599,-2.618713 6.799578,-2.618713 m 1e-6,10e-7 c 0.339979,0 6.799576,2.487778 6.799576,2.618713 0,0.130936 -6.459597,2.618713 -6.799576,2.618713 m 1.699895,2.618713 c 0,-0.130936 6.459601,-2.618713 6.799581,-2.618713 0.33998,0 6.79957,2.487778 6.79957,2.618713 M 96.886018,84.569307 c 0,0.130936 6.459602,2.618713 6.799582,2.618713 0.33997,0 6.79957,-2.487778 6.79957,-2.618713 m 1.6999,7.85614 c -0.33998,0 -6.79958,-2.487778 -6.79958,-2.618713 0,-0.130936 6.4596,-2.618713 6.79958,-2.618713 m 0,10e-7 c 0.33998,0 6.79958,2.487778 6.79958,2.618713 0,0.130936 -6.4596,2.618713 -6.79958,2.618713 m 1.69989,2.618713 c 0,-0.130936 6.4596,-2.618713 6.79958,-2.618713 0.33998,0 6.79958,2.487778 6.79958,2.618713 M 113.88496,84.569307 c 0,0.130936 6.4596,2.618713 6.79958,2.618713 0.33998,0 6.79958,-2.487778 6.79958,-2.618713 m 1.69989,7.85614 c -0.33997,0 -6.79957,-2.487778 -6.79957,-2.618713 0,-0.130936 6.4596,-2.618713 6.79957,-2.618713 m 1e-5,10e-7 c 0.33998,0 6.79957,2.487778 6.79957,2.618713 0,0.130936 -6.45959,2.618713 -6.79957,2.618713 m 1.69989,2.618713 c 0,-0.130936 6.4596,-2.618713 6.79958,-2.618713 0.33998,0 6.79958,2.487778 6.79958,2.618713 M 130.88391,84.569307 c 0,0.130936 6.4596,2.618713 6.79958,2.618713 0.33998,0 6.79958,-2.487778 6.79958,-2.618713 m 1.69989,7.85614 c -0.33998,0 -6.79958,-2.487778 -6.79958,-2.618713 0,-0.130936 6.4596,-2.618713 6.79958,-2.618713 m 0,10e-7 c 0.33998,0 6.79958,2.487778 6.79958,2.618713 0,0.130936 -6.4596,2.618713 -6.79958,2.618713 m 1.6999,2.618713 c 0,-0.130936 6.4596,-2.618713 6.79957,-2.618713 0.33998,0 6.79958,2.487778 6.79958,2.618713 M 147.88286,84.569307 c 0,0.130936 6.45959,2.618713 6.79957,2.618713 0.33998,0 6.79958,-2.487778 6.79958,-2.618713 m 1.6999,7.85614 c -0.33998,0 -6.79958,-2.487778 -6.79958,-2.618713 0,-0.130936 6.4596,-2.618713 6.79958,-2.618713 m 0,10e-7 c 0.33998,0 6.79958,2.487778 6.79958,2.618713 0,0.130936 -6.4596,2.618713 -6.79958,2.618713 m 1.69989,2.618713 c 0,-0.130936 6.4596,-2.618713 6.79958,-2.618713 0.33998,0 6.79958,2.487778 6.79958,2.618713 M 164.8818,84.569307 c 0,0.130936 6.4596,2.618713 6.79958,2.618713 0.33998,0 6.79958,-2.487778 6.79958,-2.618713 m 1.69989,7.85614 c -0.33998,0 -6.79958,-2.487778 -6.79958,-2.618713 0,-0.130936 6.4596,-2.618713 6.79958,-2.618713 m 0,10e-7 c 0.33998,0 6.79958,2.487778 6.79958,2.618713 0,0.130936 -6.4596,2.618713 -6.79958,2.618713 m 1.6999,2.618713 c 0,-0.130936 6.4596,-2.618713 6.79958,-2.618713 0.33998,0 6.79957,2.487778 6.79957,2.618713 M 181.88075,84.569307 c 0,0.130936 6.4596,2.618713 6.79958,2.618713 0.33997,0 6.79957,-2.487778 6.79957,-2.618713 M 28.890235,105.51901 c 0,-0.13093 6.459599,-2.61871 6.799578,-2.61871 0.339979,0 6.799578,2.48778 6.799578,2.61871 M 28.890234,95.044161 c 0,0.130936 6.459599,2.618713 6.799578,2.618713 0.339979,0 6.799578,-2.487778 6.799578,-2.618713 m 1.699895,7.856139 c -0.339979,0 -6.799578,-2.48778 -6.799578,-2.61871 0,-0.13094 6.459599,-2.618715 6.799578,-2.618715 m 1e-6,10e-7 c 0.339979,0 6.799578,2.487774 6.799578,2.618714 0,0.13094 -6.459599,2.61871 -6.799578,2.61871 m 1.699895,2.61871 c 0,-0.13093 6.459599,-2.61871 6.799578,-2.61871 0.339979,0 6.799578,2.48778 6.799578,2.61871 M 45.88918,95.044161 c 0,0.130936 6.459599,2.618713 6.799578,2.618713 0.339979,0 6.799578,-2.487778 6.799578,-2.618713 m 1.699895,7.856139 c -0.339979,0 -6.799578,-2.48778 -6.799578,-2.61871 0,-0.13094 6.459599,-2.618715 6.799578,-2.618715 m 10e-7,10e-7 c 0.339979,0 6.799578,2.487774 6.799578,2.618714 0,0.13094 -6.459599,2.61871 -6.799578,2.61871 m 1.699895,2.61871 c 0,-0.13093 6.459599,-2.61871 6.799578,-2.61871 0.339979,0 6.799578,2.48778 6.799578,2.61871 M 62.888126,95.044161 c 0,0.130936 6.459599,2.618713 6.799578,2.618713 0.339979,0 6.799578,-2.487778 6.799578,-2.618713 m 1.699895,7.856139 c -0.339979,0 -6.799578,-2.48778 -6.799578,-2.61871 0,-0.13094 6.459599,-2.618715 6.799578,-2.618715 m 10e-7,10e-7 c 0.339979,0 6.799578,2.487774 6.799578,2.618714 0,0.13094 -6.459599,2.61871 -6.799578,2.61871 m 1.699895,2.61871 c 0,-0.13093 6.459599,-2.61871 6.799578,-2.61871 0.339979,0 6.799578,2.48778 6.799578,2.61871 M 79.887072,95.044161 c 0,0.130936 6.459599,2.618713 6.799578,2.618713 0.339979,0 6.799578,-2.487778 6.799578,-2.618713 m 1.699895,7.856139 c -0.339979,0 -6.799578,-2.48778 -6.799578,-2.61871 0,-0.13094 6.459599,-2.618715 6.799578,-2.618715 m 1e-6,10e-7 c 0.339979,0 6.799576,2.487774 6.799576,2.618714 0,0.13094 -6.459597,2.61871 -6.799576,2.61871 m 1.699895,2.61871 c 0,-0.13093 6.459601,-2.61871 6.799581,-2.61871 0.33998,0 6.79957,2.48778 6.79957,2.61871 M 96.886018,95.044161 c 0,0.130936 6.459602,2.618713 6.799582,2.618713 0.33997,0 6.79957,-2.487778 6.79957,-2.618713 m 1.6999,7.856139 c -0.33998,0 -6.79958,-2.48778 -6.79958,-2.61871 0,-0.13094 6.4596,-2.618715 6.79958,-2.618715 m 0,10e-7 c 0.33998,0 6.79958,2.487774 6.79958,2.618714 0,0.13094 -6.4596,2.61871 -6.79958,2.61871 m 1.69989,2.61871 c 0,-0.13093 6.4596,-2.61871 6.79958,-2.61871 0.33998,0 6.79958,2.48778 6.79958,2.61871 M 113.88496,95.044161 c 0,0.130936 6.4596,2.618713 6.79958,2.618713 0.33998,0 6.79958,-2.487778 6.79958,-2.618713 m 1.69989,7.856139 c -0.33997,0 -6.79957,-2.48778 -6.79957,-2.61871 0,-0.13094 6.4596,-2.618715 6.79957,-2.618715 m 1e-5,10e-7 c 0.33998,0 6.79957,2.487774 6.79957,2.618714 0,0.13094 -6.45959,2.61871 -6.79957,2.61871 m 1.69989,2.61871 c 0,-0.13093 6.4596,-2.61871 6.79958,-2.61871 0.33998,0 6.79958,2.48778 6.79958,2.61871 M 130.88391,95.044161 c 0,0.130936 6.4596,2.618713 6.79958,2.618713 0.33998,0 6.79958,-2.487778 6.79958,-2.618713 m 1.69989,7.856139 c -0.33998,0 -6.79958,-2.48778 -6.79958,-2.61871 0,-0.13094 6.4596,-2.618715 6.79958,-2.618715 m 0,10e-7 c 0.33998,0 6.79958,2.487774 6.79958,2.618714 0,0.13094 -6.4596,2.61871 -6.79958,2.61871 m 1.6999,2.61871 c 0,-0.13093 6.4596,-2.61871 6.79957,-2.61871 0.33998,0 6.79958,2.48778 6.79958,2.61871 M 147.88286,95.044161 c 0,0.130936 6.45959,2.618713 6.79957,2.618713 0.33998,0 6.79958,-2.487778 6.79958,-2.618713 m 1.6999,7.856139 c -0.33998,0 -6.79958,-2.48778 -6.79958,-2.61871 0,-0.13094 6.4596,-2.618715 6.79958,-2.618715 m 0,10e-7 c 0.33998,0 6.79958,2.487774 6.79958,2.618714 0,0.13094 -6.4596,2.61871 -6.79958,2.61871 m 1.69989,2.61871 c 0,-0.13093 6.4596,-2.61871 6.79958,-2.61871 0.33998,0 6.79958,2.48778 6.79958,2.61871 M 164.8818,95.044161 c 0,0.130936 6.4596,2.618713 6.79958,2.618713 0.33998,0 6.79958,-2.487778 6.79958,-2.618713 m 1.69989,7.856139 c -0.33998,0 -6.79958,-2.48778 -6.79958,-2.61871 0,-0.13094 6.4596,-2.618715 6.79958,-2.618715 m 0,10e-7 c 0.33998,0 6.79958,2.487774 6.79958,2.618714 0,0.13094 -6.4596,2.61871 -6.79958,2.61871 m 1.6999,2.61871 c 0,-0.13093 6.4596,-2.61871 6.79958,-2.61871 0.33998,0 6.79957,2.48778 6.79957,2.61871 M 181.88075,95.044161 c 0,0.130936 6.4596,2.618713 6.79958,2.618713 0.33997,0 6.79957,-2.487778 6.79957,-2.618713 M 28.890234,105.51901 c 0,0.13094 6.459599,2.61872 6.799578,2.61872 0.339979,0 6.799578,-2.48778 6.799578,-2.61872 m 1.699895,7.85614 c -0.339979,0 -6.799578,-2.48777 -6.799578,-2.61871 0,-0.13094 6.459599,-2.61871 6.799578,-2.61871 m 1e-6,0 c 0.339979,0 6.799578,2.48778 6.799578,2.61871 0,0.13094 -6.459599,2.61871 -6.799578,2.61871 m 1.699894,-7.85614 c 0,0.13094 6.459599,2.61872 6.799578,2.61872 0.339979,0 6.799578,-2.48778 6.799578,-2.61872 m 1.699895,7.85614 c -0.339979,0 -6.799578,-2.48777 -6.799578,-2.61871 0,-0.13094 6.459599,-2.61871 6.799578,-2.61871 m 10e-7,0 c 0.339979,0 6.799578,2.48778 6.799578,2.61871 0,0.13094 -6.459599,2.61871 -6.799578,2.61871 m 1.699894,-7.85614 c 0,0.13094 6.459599,2.61872 6.799578,2.61872 0.339979,0 6.799578,-2.48778 6.799578,-2.61872 m 1.699895,7.85614 c -0.339979,0 -6.799578,-2.48777 -6.799578,-2.61871 0,-0.13094 6.459599,-2.61871 6.799578,-2.61871 m 10e-7,0 c 0.339979,0 6.799578,2.48778 6.799578,2.61871 0,0.13094 -6.459599,2.61871 -6.799578,2.61871 m 1.699894,-7.85614 c 0,0.13094 6.459599,2.61872 6.799578,2.61872 0.339979,0 6.799578,-2.48778 6.799578,-2.61872 m 1.699895,7.85614 c -0.339979,0 -6.799578,-2.48777 -6.799578,-2.61871 0,-0.13094 6.459599,-2.61871 6.799578,-2.61871 m 1e-6,0 c 0.339979,0 6.799576,2.48778 6.799576,2.61871 0,0.13094 -6.459597,2.61871 -6.799576,2.61871 m 1.699894,-7.85614 c 0,0.13094 6.459602,2.61872 6.799582,2.61872 0.33997,0 6.79957,-2.48778 6.79957,-2.61872 m 1.6999,7.85614 c -0.33998,0 -6.79958,-2.48777 -6.79958,-2.61871 0,-0.13094 6.4596,-2.61871 6.79958,-2.61871 m 0,0 c 0.33998,0 6.79958,2.48778 6.79958,2.61871 0,0.13094 -6.4596,2.61871 -6.79958,2.61871 m 1.69989,-7.85614 c 0,0.13094 6.4596,2.61872 6.79958,2.61872 0.33998,0 6.79958,-2.48778 6.79958,-2.61872 m 1.69989,7.85614 c -0.33997,0 -6.79957,-2.48777 -6.79957,-2.61871 0,-0.13094 6.4596,-2.61871 6.79957,-2.61871 m 1e-5,0 c 0.33998,0 6.79957,2.48778 6.79957,2.61871 0,0.13094 -6.45959,2.61871 -6.79957,2.61871 m 1.69989,-7.85614 c 0,0.13094 6.4596,2.61872 6.79958,2.61872 0.33998,0 6.79958,-2.48778 6.79958,-2.61872 m 1.69989,7.85614 c -0.33998,0 -6.79958,-2.48777 -6.79958,-2.61871 0,-0.13094 6.4596,-2.61871 6.79958,-2.61871 m 0,0 c 0.33998,0 6.79958,2.48778 6.79958,2.61871 0,0.13094 -6.4596,2.61871 -6.79958,2.61871 m 1.6999,-7.85614 c 0,0.13094 6.45959,2.61872 6.79957,2.61872 0.33998,0 6.79958,-2.48778 6.79958,-2.61872 m 1.6999,7.85614 c -0.33998,0 -6.79958,-2.48777 -6.79958,-2.61871 0,-0.13094 6.4596,-2.61871 6.79958,-2.61871 m 0,0 c 0.33998,0 6.79958,2.48778 6.79958,2.61871 0,0.13094 -6.4596,2.61871 -6.79958,2.61871 m 1.69989,-7.85614 c 0,0.13094 6.4596,2.61872 6.79958,2.61872 0.33998,0 6.79958,-2.48778 6.79958,-2.61872 m 1.69989,7.85614 c -0.33998,0 -6.79958,-2.48777 -6.79958,-2.61871 0,-0.13094 6.4596,-2.61871 6.79958,-2.61871 m 0,0 c 0.33998,0 6.79958,2.48778 6.79958,2.61871 0,0.13094 -6.4596,2.61871 -6.79958,2.61871 m 1.6999,-7.85614 c 0,0.13094 6.4596,2.61872 6.79958,2.61872 0.33997,0 6.79957,-2.48778 6.79957,-2.61872"
         id="path26"
         sodipodi:nodetypes="csccsccsccsccsccsccsccsccsccsccsccsccsccsccsccsccsccsccsccsccsccsccsccsccsccsccsccsccsccsccsccsccsccsccsccsccsccsccsccsccsccsccsccsccsccsccsccsccsccsccsccsccsccsccsccsccsccsccsccsccsccsccsccsccsccsccsccsccsccsccsccsccsccsccsccsccsccsccsccsccsccsccsccsccsccsccsccsccsccsccsccsccsccsccsccsccsccsccsccsccsccsccsccsccsccsccsccsccsccsccsccsccsccsccsccsccsccsccsccsccsccsccsccsccsccsccsccsccsccsccsccsccsccsccsccsccsccsccsccsccsccsccsccsccsccsccsccsccsccsccsccsccsccsccsccsccsccsccsccsccsccsccsccsccsccsccsccsccsccsccsccsccsccsccsccsccsccsccsccsccsccsccsccsccsccsccsccsccsccsccsccsccsccsccsccsccsccsccsccsccsccsccsccsccsccsccsccsccsccsccsccsccsccsccsccsccsccsccsccsccsccsccsccsccsccsccsccsccsccsccsccsccsccsccsccsccsccsccsccsccsccsccsccsccsccsc">
        <desc
           id="desc26">diamond hinge length: 17.0 spacing: 10 curve: 0.1</desc>
      </path>
    </g>
  </g>
</svg>
